<?xml version="1.0" encoding="UTF-8"?>
<!DOCTYPE svg PUBLIC "-//W3C//DTD SVG 1.1//EN" "http://www.w3.org/Graphics/SVG/1.1/DTD/svg11.dtd">
<!-- Creator: CorelDRAW -->
<svg xmlns="http://www.w3.org/2000/svg" xml:space="preserve" width="2048px" height="2048px" style="shape-rendering:geometricPrecision; text-rendering:geometricPrecision; image-rendering:optimizeQuality; fill-rule:evenodd; clip-rule:evenodd"
viewBox="0 0 2048 2048"
 xmlns:xlink="http://www.w3.org/1999/xlink">
 <defs>
  <style type="text/css">
   <![CDATA[
    .fil2 {fill:none}
    .fil1 {fill:#00897B}
    .fil0 {fill:#4DB6AC}
    .fil3 {fill:#E30D18}
    .fil4 {fill:#FFFFFE}
    .fil5 {fill:#E30D18;fill-rule:nonzero}
   ]]>
  </style>
   <clipPath id="id0">
    <path d="M1024 -0.0011811c565.539,0 1024,458.462 1024,1024 0,565.539 -458.462,1024 -1024,1024 -565.539,0 -1024,-458.462 -1024,-1024 0,-565.539 458.462,-1024 1024,-1024z"/>
   </clipPath>
 </defs>
 <g id="Layer_x0020_1">
  <metadata id="CorelCorpID_0Corel-Layer"/>
  <path class="fil0" d="M1024 -0.0011811c565.539,0 1024,458.462 1024,1024 0,565.539 -458.462,1024 -1024,1024 -565.539,0 -1024,-458.462 -1024,-1024 0,-565.539 458.462,-1024 1024,-1024z"/>
  <g style="clip-path:url(#id0)">
   <g id="_300479696">
    <g>
     <polygon id="_3070938641" class="fil1" points="1184.93,591.368 2320.81,1727.25 2320.81,1876.63 1184.93,740.749 "/>
     <polygon id="_307093600" class="fil1" points="1405.72,706.541 2541.6,1842.42 2541.6,1876.63 1405.72,740.749 "/>
     <polygon id="_307094632" class="fil1" points="1560.71,773.738 2696.59,1909.62 2698.07,1911.37 2699.51,1913.15 2700.9,1914.97 2702.26,1916.82 2703.56,1918.71 2704.83,1920.62 2706.05,1922.57 2707.22,1924.55 2708.35,1926.56 2709.43,1928.6 2710.46,1930.67 2711.44,1932.76 2712.37,1934.88 2713.25,1937.03 2714.08,1939.21 2714.86,1941.41 2715.58,1943.63 2716.25,1945.87 2716.87,1948.14 2717.43,1950.43 2717.94,1952.74 2718.39,1955.07 2718.78,1957.42 2719.11,1959.79 2719.39,1962.18 2719.6,1964.58 2719.76,1967 2719.85,1969.44 2719.88,1971.89 1584,836.007 1583.97,833.557 1583.88,831.121 1583.72,828.701 1583.51,826.297 1583.23,823.91 1582.9,821.541 1582.51,819.191 1582.06,816.86 1581.55,814.549 1580.99,812.26 1580.37,809.991 1579.7,807.746 1578.98,805.523 1578.2,803.324 1577.37,801.151 1576.49,799.002 1575.56,796.88 1574.57,794.784 1573.54,792.716 1572.47,790.678 1571.34,788.669 1570.17,786.689 1568.95,784.74 1567.68,782.823 1566.37,780.938 1565.02,779.086 1563.63,777.269 1562.19,775.485 "/>
     <polygon id="_307094200" class="fil1" points="1584,836.007 2719.88,1971.89 2719.88,2497.26 1584,1361.37 "/>
     <polygon id="_307094224" class="fil1" points="1584,1361.37 2719.88,2497.26 2719.85,2499.71 2719.76,2502.14 2719.6,2504.56 2719.39,2506.97 2719.11,2509.35 2718.78,2511.72 2718.39,2514.07 2717.94,2516.4 2717.43,2518.71 2716.87,2521 2716.25,2523.27 2715.58,2525.52 2714.86,2527.74 2714.08,2529.94 2713.25,2532.11 2712.37,2534.26 2711.44,2536.38 2710.45,2538.48 2709.42,2540.55 2708.35,2542.58 2707.22,2544.59 2706.05,2546.57 2704.83,2548.52 2703.56,2550.44 2702.25,2552.32 2700.9,2554.17 2699.51,2555.99 2698.07,2557.78 2696.59,2559.52 2695.07,2561.24 2693.51,2562.91 2691.91,2564.55 1556.03,1428.66 1557.63,1427.03 1559.19,1425.35 1560.71,1423.64 1562.19,1421.89 1563.63,1420.11 1565.02,1418.29 1566.37,1416.44 1567.68,1414.56 1568.95,1412.64 1570.17,1410.69 1571.34,1408.71 1572.46,1406.7 1573.54,1404.66 1574.57,1402.6 1575.56,1400.5 1576.49,1398.38 1577.37,1396.23 1578.2,1394.06 1578.98,1391.86 1579.7,1389.64 1580.37,1387.39 1580.99,1385.12 1581.55,1382.83 1582.06,1380.52 1582.51,1378.19 1582.9,1375.84 1583.23,1373.47 1583.51,1371.08 1583.72,1368.68 1583.88,1366.26 1583.97,1363.82 "/>
     <polygon id="_307094728" class="fil1" points="759.116,706.541 1895,1842.42 1895,1876.63 759.116,740.749 "/>
     <polygon id="_307094800" class="fil1" points="1488.74,1456.63 2624.62,2592.51 1695.14,2592.51 559.258,1456.63 "/>
     <polygon id="_307094152" class="fil1" points="559.258,1456.63 1695.14,2592.51 1692.69,2592.48 1690.25,2592.39 1687.83,2592.24 1685.43,2592.02 1683.04,2591.75 1680.67,2591.41 1678.32,2591.02 1675.99,2590.57 1673.68,2590.06 1671.39,2589.5 1669.12,2588.89 1666.88,2588.22 1664.65,2587.49 1662.46,2586.71 1660.28,2585.88 1658.13,2585 1656.01,2584.07 1653.92,2583.09 1651.85,2582.06 1649.81,2580.98 1647.8,2579.85 1645.82,2578.68 1643.87,2577.46 1641.95,2576.2 1640.07,2574.89 1638.22,2573.54 1636.4,2572.14 1634.62,2570.7 498.735,1434.82 500.518,1436.26 502.336,1437.65 504.188,1439.01 506.073,1440.31 507.99,1441.58 509.939,1442.8 511.919,1443.97 513.928,1445.1 515.967,1446.18 518.034,1447.21 520.13,1448.19 522.252,1449.12 524.4,1450 526.575,1450.83 528.773,1451.61 530.996,1452.33 533.242,1453 535.51,1453.62 537.8,1454.18 540.111,1454.69 542.442,1455.14 544.792,1455.53 547.161,1455.86 549.548,1456.14 551.952,1456.35 554.372,1456.51 556.808,1456.6 "/>
     <polygon id="_307094176" class="fil1" points="1556.03,1428.66 2691.91,2564.55 2690.28,2566.14 2688.6,2567.7 2686.89,2569.22 2685.14,2570.7 2683.36,2572.14 2681.54,2573.54 2679.69,2574.89 2677.81,2576.2 2675.89,2577.46 2673.94,2578.68 2671.96,2579.85 2669.95,2580.98 2667.91,2582.06 2665.85,2583.09 2663.75,2584.07 2661.63,2585 2659.48,2585.88 2657.31,2586.71 2655.11,2587.49 2652.89,2588.22 2650.64,2588.89 2648.37,2589.5 2646.08,2590.06 2643.77,2590.57 2641.44,2591.02 2639.09,2591.41 2636.72,2591.75 2634.33,2592.02 2631.93,2592.24 2629.51,2592.39 2627.07,2592.48 2624.62,2592.51 1488.74,1456.63 1491.19,1456.6 1493.63,1456.51 1496.05,1456.35 1498.45,1456.14 1500.84,1455.86 1503.21,1455.53 1505.56,1455.14 1507.89,1454.69 1510.2,1454.18 1512.49,1453.62 1514.76,1453 1517,1452.33 1519.23,1451.61 1521.43,1450.83 1523.6,1450 1525.75,1449.12 1527.87,1448.19 1529.96,1447.21 1532.03,1446.17 1534.07,1445.1 1536.08,1443.97 1538.06,1442.8 1540.01,1441.58 1541.93,1440.31 1543.81,1439.01 1545.66,1437.65 1547.48,1436.26 1549.26,1434.82 1551.01,1433.34 1552.72,1431.82 1554.4,1430.26 "/>
    </g>
    <path id="_300480776" class="fil1" d="M863.071 591.368l321.858 0 0 149.381 103.955 0 0 -34.2083 116.835 0 0 34.2083 83.0245 0c26.2193,0 50.0374,10.7126 67.291,27.9662 17.2559,17.2559 27.9673,41.0776 27.9673,67.2922l0 525.367c0,26.2146 -10.7138,50.0351 -27.9685,67.2898 -17.2547,17.2559 -41.0752,27.9685 -67.2898,27.9685l-929.485 0c-26.2146,0 -50.0374,-10.7114 -67.2934,-27.9673 -17.2524,-17.2536 -27.965,-41.0717 -27.965,-67.291l0 -525.367c0,-26.2193 10.7102,-50.0398 27.9638,-67.2945 17.2536,-17.2524 41.074,-27.9638 67.2945,-27.9638l83.0233 0 0 -34.2083 116.835 0 0 34.2083 103.955 0 0 -149.381z"/>
   </g>
  </g>
  <path class="fil2" d="M1024 -0.0011811c565.539,0 1024,458.462 1024,1024 0,565.539 -458.462,1024 -1024,1024 -565.539,0 -1024,-458.462 -1024,-1024 0,-565.539 458.462,-1024 1024,-1024z"/>
  <polygon class="fil3" points="1117.09,659.203 930.907,659.203 930.907,784.66 863.071,784.66 863.071,591.368 1184.93,591.368 1184.93,784.66 1117.09,784.66 "/>
  <path class="fil4" d="M559.258 740.749l929.485 0c26.2193,0 50.0374,10.7126 67.291,27.9662 17.2559,17.2559 27.9673,41.0776 27.9673,67.2922l0 525.367c0,26.2146 -10.7138,50.0351 -27.9685,67.2898 -17.2547,17.2559 -41.0752,27.9685 -67.2898,27.9685l-929.485 0c-26.2146,0 -50.0374,-10.7114 -67.2934,-27.9673 -17.2524,-17.2536 -27.965,-41.0717 -27.965,-67.291l0 -525.367c0,-26.2193 10.7102,-50.0398 27.9638,-67.2945 17.2536,-17.2524 41.074,-27.9638 67.2945,-27.9638z"/>
  <polygon class="fil3" points="1068.83,1053.86 1231.84,1053.86 1231.84,1143.52 1068.83,1143.52 1068.83,1306.53 979.171,1306.53 979.171,1143.52 816.162,1143.52 816.162,1053.86 979.171,1053.86 979.171,890.854 1068.83,890.854 "/>
  <path class="fil5" d="M642.282 706.541l116.835 0 0 38.9693 -116.835 0 0 -38.9693zm646.602 0l116.835 0 0 38.9693 -116.835 0 0 -38.9693z"/>
 </g>
</svg>
