<svg xmlns="http://www.w3.org/2000/svg" viewBox="0 0 48 48"><title>30-doctor</title><g id="_30-doctor" data-name="30-doctor"><path d="M14,20a12.8,12.8,0,0,0,.16,1.98L14,22H13a3,3,0,0,1-3-3,3.011,3.011,0,0,1,3-3h1Z" style="fill:#faa68e"/><path d="M11,19a3.011,3.011,0,0,1,3-3H13a3,3,0,0,0,0,6h1a3,3,0,0,1-3-3Z" style="fill:#ffcdbe"/><path d="M34,20a12.8,12.8,0,0,1-.16,1.98L34,22h1a3,3,0,0,0,3-3,3.011,3.011,0,0,0-3-3H34Z" style="fill:#ffcdbe"/><path d="M37,16.77A2.965,2.965,0,0,0,35,16H34a3,3,0,0,1,0,6h1a3,3,0,0,0,3-3A2.94,2.94,0,0,0,37,16.77Z" style="fill:#ffdecf"/><path d="M30,29v4l-6,4-6-4V29l.09-.12a9.3,9.3,0,0,0,11.82,0Z" style="fill:#ffcdbe"/><path d="M34,16.85V20a11.539,11.539,0,0,1-2.93,7.78,10.944,10.944,0,0,1-1.16,1.1,9.3,9.3,0,0,1-11.82,0,11.241,11.241,0,0,1-3.93-6.9A12.8,12.8,0,0,1,14,20V15.53a2,2,0,0,1,.26-.99L18,8s7.57,5.89,14.23,6.86A2.032,2.032,0,0,1,34,16.85Z" style="fill:#ffcdbe"/><path d="M32.23,14.86C25.57,13.89,18,8,18,8l-2,3.5h0L14.26,14.54a2,2,0,0,0-.26.99V20a12.8,12.8,0,0,0,.16,1.98,11.241,11.241,0,0,0,3.93,6.9A9.389,9.389,0,0,0,24,31a9.193,9.193,0,0,0,1-.061,9.443,9.443,0,0,1-4.91-2.059,11.241,11.241,0,0,1-3.93-6.9A12.8,12.8,0,0,1,16,20V15.56a4,4,0,0,1,.528-1.985L18,11s7.57,5.89,14.23,6.86A2.032,2.032,0,0,1,34,19.85v-3A2.032,2.032,0,0,0,32.23,14.86Z" style="fill:#ffbeaa"/><path d="M32.23,17.86c-.076-.011-.154-.031-.23-.043V20a11.539,11.539,0,0,1-2.93,7.78,10.944,10.944,0,0,1-1.16,1.1A9.443,9.443,0,0,1,23,30.939,9.193,9.193,0,0,0,24,31a9.389,9.389,0,0,0,5.91-2.12,10.944,10.944,0,0,0,1.16-1.1A11.539,11.539,0,0,0,34,20v-.15A2.032,2.032,0,0,0,32.23,17.86Z" style="fill:#ffdecf"/><path d="M32.23,14.86c-.076-.011-.154-.031-.23-.043v3c.076.012.154.032.23.043A2.032,2.032,0,0,1,34,19.85v-3A2.032,2.032,0,0,0,32.23,14.86Z" style="fill:#ffcdbe"/><path d="M24,33a9.174,9.174,0,0,1-1.876-.2,7.005,7.005,0,0,0,3.833,2.9L30,33V30.8c-.031.026-.059.053-.09.079A9.389,9.389,0,0,1,24,33Z" style="fill:#ffdecf"/><path d="M22.124,32.8a6.954,6.954,0,0,1-.947-2.252A9.611,9.611,0,0,1,18.09,28.88L18,29v1.8c.031.025.059.055.09.08A9.519,9.519,0,0,0,22.124,32.8Z" style="fill:#faa68e"/><path d="M29.91,28.88A9.389,9.389,0,0,1,24,31a9.149,9.149,0,0,1-2.823-.453,6.954,6.954,0,0,0,.947,2.252A9.174,9.174,0,0,0,24,33a9.389,9.389,0,0,0,5.91-2.12c.031-.026.059-.053.09-.079V29Z" style="fill:#ffbeaa"/><path d="M34,16v.85a2.032,2.032,0,0,0-1.77-1.99C25.57,13.89,18,8,18,8l-3.74,6.54a2,2,0,0,0-.26.99V16H13a2.965,2.965,0,0,0-2,.77V14a13,13,0,0,1,26,0v2.77A2.965,2.965,0,0,0,35,16Z" style="fill:#192b44"/><path d="M36.948,12.968a12.966,12.966,0,0,0-18.8-10.562C19.268,8.167,27.17,12.663,36.948,12.968Z" style="fill:#2b3e5b"/><path d="M11.788,9.583A12.916,12.916,0,0,0,11,14v2.77A2.965,2.965,0,0,1,13,16h1V13S13.992,11.371,11.788,9.583Z" style="fill:#112135"/><polygon points="26 43 27 47 21 47 22 43 26 43" style="fill:#4f7fff"/><polygon points="24 37 29.74 41.78 28 47 27 47 26 43 22 43 21 47 20 47 18.26 41.78 24 37" style="fill:#4f7fff"/><polygon points="29.74 41.78 31.86 35.43 37.08 36.66 37 37 37 44 33 44 37 47 28 47 29.74 41.78" style="fill:#edf2ff"/><polygon points="18.26 41.78 20 47 11 47 15 44 11 44 11 37 10.92 36.66 16.14 35.43 18.26 41.78" style="fill:#edf2ff"/><path d="M47,43.75V47H37l-4-3h4V37l.08-.34,5.29,1.25A6.009,6.009,0,0,1,47,43.75Z" style="fill:#e8eeff"/><path d="M11,44h4l-4,3H1V43.75a6.009,6.009,0,0,1,4.63-5.84l5.29-1.25L11,37Z" style="fill:#e8eeff"/><polygon points="38 45 38 36.877 37.08 36.66 37 37 37 44 33 44 37 47 39 47 36 45 38 45" style="fill:#ccd7f2"/><polygon points="10 45 10 36.877 10.92 36.66 11 37 11 44 15 44 11 47 9 47 12 45 10 45" style="fill:#ccd7f2"/><polygon points="26.824 41.352 27.53 39.94 24 37 20.47 39.94 21.176 41.352 24 39 26.824 41.352" style="fill:#376dff"/><path d="M18,33l6,4-5.74,4.78-2.12-6.35.32-.07A2,2,0,0,0,18,33.42Z" style="fill:#e8eeff"/><path d="M30,33v.42a2,2,0,0,0,1.54,1.94l.32.07-2.12,6.35L24,37Z" style="fill:#e8eeff"/><polygon points="27.53 39.94 26 43 27 47 28 47 29.74 41.78 27.53 39.94" style="fill:#bccced"/><polygon points="20.47 39.94 18.26 41.78 20 47 21 47 22 43 20.47 39.94" style="fill:#bccced"/><polygon points="26 43 22 43 21.75 44 26.25 44 26 43" style="fill:#376dff"/><path d="M17.04,35.119a1.971,1.971,0,0,1-.58.241l-.32.07,2.12,6.35.783-.652Z" style="fill:#ccd7f2"/><path d="M29.74,41.78l2.12-6.35-.32-.07a1.971,1.971,0,0,1-.58-.241l-2,6.009Z" style="fill:#ccd7f2"/><polygon points="28.957 41.128 27.53 39.94 27.176 40.647 28.696 41.913 27 47 28 47 29.478 42.565 29.74 41.78 28.957 41.128" style="fill:#a7bfe8"/><polygon points="19.304 41.913 20.824 40.647 20.47 39.94 19.043 41.128 18.26 41.78 18.522 42.565 20 47 21 47 19.304 41.913" style="fill:#a7bfe8"/><polygon points="32.205 38.702 34.555 39.31 37 39.939 37 37 37.08 36.66 31.86 35.43 30.932 38.209 32.205 38.702" style="fill:#f7f9ff"/><polygon points="11 39.852 17.05 38.157 16.14 35.43 10.92 36.66 11 37 11 39.852" style="fill:#f7f9ff"/><path d="M47,43.75a6.009,6.009,0,0,0-4.63-5.84l-5.29-1.25.92.217V40.2l2.773.713A5.923,5.923,0,0,1,45,46.75V47h2Z" style="fill:#f7f9ff"/><path d="M7.227,40.91,10,40.133V36.877l.92-.217L5.63,37.91A6.009,6.009,0,0,0,1,43.75V47H3v-.25A5.923,5.923,0,0,1,7.227,40.91Z" style="fill:#f7f9ff"/><polygon points="37 39.939 38 40.197 38 36.877 37.08 36.66 37 37 37 39.939" style="fill:#dde4f7"/><polygon points="10 40.133 11 39.852 11 37 10.92 36.66 10 36.877 10 40.133" style="fill:#dde4f7"/><path d="M17.959,37.876l4.805-1.7L18,33v.42a2,2,0,0,1-.96,1.7h0Z" style="fill:#edf2ff"/><path d="M30.96,35.119h0a2,2,0,0,1-.96-1.7V33l-4.764,3.176,4.805,1.7Z" style="fill:#edf2ff"/><path d="M17.609,38l.35-.124-.919-2.757h0a1.971,1.971,0,0,1-.58.241l-.32.07.91,2.727Z" style="fill:#dde4f7"/><path d="M30.041,37.876l.35.124.541.209.928-2.779-.32-.07a1.971,1.971,0,0,1-.58-.241h0Z" style="fill:#dde4f7"/><ellipse cx="29.5" cy="18" rx="0.5" ry="2" style="fill:#2b3e5b"/><ellipse cx="18.5" cy="18" rx="0.5" ry="2" style="fill:#2b3e5b"/><ellipse cx="28" cy="9" rx="0.825" ry="1.148" transform="translate(1.842 22.444) rotate(-45.02)" style="fill:#f6fafd"/><ellipse cx="42" cy="43" rx="0.825" ry="1.148" transform="translate(-18.104 42.314) rotate(-45.02)" style="fill:#f6fafd"/><ellipse cx="32.003" cy="9.987" rx="1.642" ry="2.286" transform="translate(2.317 25.564) rotate(-45.02)" style="fill:#f6fafd"/><ellipse cx="24.746" cy="40.5" rx="0.413" ry="0.574" transform="translate(-21.394 29.376) rotate(-45.02)" style="fill:#f6fafd"/></g></svg>