<svg xmlns="http://www.w3.org/2000/svg" viewBox="0 0 48 48"><defs><style>.cls-1{fill:#201602;}</style></defs><title>Asset 57ldpi</title><g id="Layer_2" data-name="Layer 2"><g id="layer_1-2" data-name="layer 1"><path class="cls-1" d="M10,36c-2.76,0-5-2.69-5-6a4.68,4.68,0,0,1,5-5,4.68,4.68,0,0,1,5,5C15,33.31,12.76,36,10,36Zm0-9a2.72,2.72,0,0,0-3,3c0,2.21,1.35,4,3,4s3-1.79,3-4A2.72,2.72,0,0,0,10,27Z"/><path class="cls-1" d="M2,48H0V39.58a5,5,0,0,1,4.45-5L9.89,34l.22,2-5.44.61a3,3,0,0,0-2.67,3Z"/><rect class="cls-1" x="4" y="40" width="2" height="8"/><path class="cls-1" d="M20,48H18V39.58a3,3,0,0,0-2.67-3L9.89,36l.22-2,5.44.6a5,5,0,0,1,4.45,5Z"/><rect class="cls-1" x="14" y="40" width="2" height="8"/><path class="cls-1" d="M38,36c-2.76,0-5-2.69-5-6a4.68,4.68,0,0,1,5-5,4.68,4.68,0,0,1,5,5C43,33.31,40.76,36,38,36Zm0-9a2.72,2.72,0,0,0-3,3c0,2.21,1.35,4,3,4s3-1.79,3-4A2.72,2.72,0,0,0,38,27Z"/><path class="cls-1" d="M30,48H28V39.58a5,5,0,0,1,4.45-5l5.44-.6.22,2-5.44.61a3,3,0,0,0-2.67,3Z"/><rect class="cls-1" x="32" y="40" width="2" height="8"/><path class="cls-1" d="M48,48H46V39.58a3,3,0,0,0-2.67-3L37.89,36l.22-2,5.44.6a5,5,0,0,1,4.45,5Z"/><rect class="cls-1" x="42" y="40" width="2" height="8"/><path class="cls-1" d="M31,27a1,1,0,0,1-.86-.49L27.43,22H20.57l-2.71,4.51a1,1,0,0,1-1.72,0L13.43,22H8a1,1,0,0,1-1-1V1A1,1,0,0,1,8,0H40a1,1,0,0,1,1,1V21a1,1,0,0,1-1,1H34.57l-2.71,4.51A1,1,0,0,1,31,27ZM20,20h8a1,1,0,0,1,.86.49L31,24.06l2.14-3.57A1,1,0,0,1,34,20h5V2H9V20h5a1,1,0,0,1,.86.49L17,24.06l2.14-3.57A1,1,0,0,1,20,20Z"/><path class="cls-1" d="M15.08,17.39l-3-7A1,1,0,0,1,13.16,9l4.2.7L15.08,4.39l1.84-.78,3,7A1,1,0,0,1,18.84,12l-4.2-.7,2.28,5.32Z"/><rect class="cls-1" x="30" y="10" width="6" height="2"/><rect class="cls-1" x="23" y="10" width="5" height="2"/><rect class="cls-1" x="32" y="5" width="4" height="2"/><rect class="cls-1" x="23" y="5" width="7" height="2"/><rect class="cls-1" x="23" y="15" width="9" height="2"/></g></g></svg>