<!DOCTYPE svg PUBLIC "-//W3C//DTD SVG 1.1//EN" "http://www.w3.org/Graphics/SVG/1.1/DTD/svg11.dtd">
<!-- Uploaded to: SVG Repo, www.svgrepo.com, Transformed by: SVG Repo Mixer Tools -->
<svg fill="#FF5F12" width="64px" height="64px" viewBox="-148.48 -148.48 808.96 808.96" id="fill" xmlns="http://www.w3.org/2000/svg" stroke="#FF5F12">
<g id="SVGRepo_bgCarrier" stroke-width="0"/>
<g id="SVGRepo_tracerCarrier" stroke-linecap="round" stroke-linejoin="round"/>
<g id="SVGRepo_iconCarrier">
<title/>
<path d="M398.592,14H115.409A100.522,100.522,0,0,0,15,114.409V397.592A100.522,100.522,0,0,0,115.409,498H398.592A100.522,100.522,0,0,0,499,397.592V114.409A100.522,100.522,0,0,0,398.592,14ZM487,397.592A88.509,88.509,0,0,1,398.592,486H115.409A88.509,88.509,0,0,1,27,397.592V114.409A88.509,88.509,0,0,1,115.409,26H398.592A88.509,88.509,0,0,1,487,114.409Z"/>
<path d="M330.989,179.006l66.231-66.23a6,6,0,0,0-8.485-8.485l-66.6,66.6a19.407,19.407,0,0,0-22.684,3.463l-1.086,1.087-4.628-4.627a6,6,0,0,0-8.484,0l-97.766,97.765L177.343,258.44a18.068,18.068,0,0,0-25.546,0l-3.636,3.636a18.068,18.068,0,0,0,0,25.545l16.8,16.8-48.432,48.433L103.765,340.09a6,6,0,1,0-8.486,8.484l59.135,59.135a6,6,0,0,0,8.485-8.484L150.14,386.466l48.432-48.432,15.316,15.316a18.066,18.066,0,0,0,25.546,0l3.637-3.637a18.083,18.083,0,0,0,0-25.545l-8.664-8.664,97.765-97.764a6,6,0,0,0,0-8.486l-4.627-4.627,1.087-1.087h0a19.375,19.375,0,0,0,2.358-24.534ZM141.655,377.98l-16.646-16.646L173.44,312.9l16.647,16.648Zm92.93-36.751-3.636,3.636a6.066,6.066,0,0,1-8.575,0l-65.729-65.729a6.068,6.068,0,0,1,0-8.574l3.636-3.637a6.066,6.066,0,0,1,8.575,0l65.728,65.727A6.071,6.071,0,0,1,234.585,341.229Zm-8.663-34.21L195.97,277.066l51.388-51.388,7.585,7.585a6,6,0,0,0,8.485-8.486l-7.584-7.584,5.559-5.559,7.583,7.584a6,6,0,0,0,8.487-8.485l-7.584-7.585,5.559-5.559,7.584,7.584a6,6,0,1,0,8.485-8.485l-7.584-7.584,5.559-5.559L319.444,213.5Zm82.012-124.176a7.374,7.374,0,0,1,10.423,0l1.789,1.789a7.374,7.374,0,0,1,0,10.423h0l-1.086,1.087L306.848,183.93Z"/>
<path d="M396.25,131.571a6,6,0,0,0-5.307,3.2c-3.16,5.991-18.922,36.433-18.922,47.428a24.229,24.229,0,1,0,48.458,0c0-10.995-15.762-41.437-18.922-47.428A6,6,0,0,0,396.25,131.571Zm0,62.858A12.243,12.243,0,0,1,384.021,182.2c0-4.561,6.1-18.751,12.229-31.34,6.131,12.589,12.229,26.779,12.229,31.34A12.243,12.243,0,0,1,396.25,194.429Z"/>
</g>
</svg>